<svg xmlns="http://www.w3.org/2000/svg" width="100" height="69" viewBox="0 0 100 69"><g fill="none"><path fill="#DD2A1B" d="M0 0h100v69H0z"/><path fill="#FBE115" d="M0 17h100v35H0z"/><g transform="translate(20.202 20.036)"><path stroke="#000" stroke-linecap="square" stroke-width=".066" d="M20.881 8.79h.002-.002z"/><path fill="#DD2A1B" d="M5.703 10.241c-.05.135.173-.337.16-.517a.709.709 0 00-.184-.39c-.095-.112-.363-.25-.363-.25s-.636.22-.968.254a3.312 3.312 0 01-.539-.027s-.314.001-.483.042c-.21.05-.994-.26-.994-.26s-.26.176-.406.326c-.261.269.028.754.028.754l.13.27.44.255.034.49h2.48l.154-.495a.463.463 0 01.094-.09c.09-.052.168-.066.203-.097.066-.058.137-.147.214-.265z"/><path fill="#CCA02F" d="M5.07 11.148h.582v.62l-.527.732H2.567l-.538-.732v-.62h2.985c-.71-.217-1.759-.233-2.458 0a.317.317 0 01-.009-.11l-.152-.4c-.15.01-.197-.083-.272-.147-.131-.148-.244-.243-.338-.284.037-.038.05-.083.084-.091.035-.008.118-.02.247-.035.13-.016.175.026.25.115.077.088.073.161.029.21-.03.032-.105.05-.228.055.21.092.558.164.654-.265l-.163.122c-.101-.067-.152-.146-.152-.237 0-.338.222-.414.26-.437.026-.014.07 0 .135.046.06.03.2.151.244.22.03.044.05.113.06.206-.165.126-.266.157-.304.091.305.254.479.418.79.064-.013-.012-.922-.904-1.359-1.178.183-.067.353-.096.734-.07.214.231.375.474.51.722l.102-.128a.496.496 0 01-.076-.131l.005-.248a.612.612 0 01.234-.274c.104.075.184.16.226.27a.412.412 0 01.009.292.445.445 0 01-.06.106l.09.113a3.53 3.53 0 01.509-.723c.38-.025.518-.005.7.062-.29.182-1.315 1.177-1.322 1.184.228.37.779.057.7.003-.079-.053-.232-.19-.184-.269.047-.078.158-.212.248-.283a.3.3 0 01.158-.074c.067.023.128.092.182.207.08.173.038.187.028.272-.01.086-.042.17-.116.19a.373.373 0 01-.182.005c.088.413.468.251.67.174-.125.003-.206-.021-.246-.074-.059-.079-.007-.145.04-.201.046-.056.057-.06.195-.082a.856.856 0 01.304 0 .141.141 0 01.106.071c-.095.046-.213.146-.355.3a.517.517 0 01-.247.118c-.036.005-.168.265-.197.398.007.056-.002.097-.027.125z"/><path fill="#2B59AB" d="M4.068 8.878a.227.227 0 110-.003v.003z"/><path fill="#CCA02F" d="M3.906 8.66l.009.148.147.009.006.057-.01.073-.143.01h-.149l-.143-.01-.01-.069.007-.061.146-.009.009-.148.019-.13-.107.049v-.175l.107.063.005-.002-.054-.124h.191l-.049.126.107-.063v.175L3.88 8.53z"/><path fill="#CCC" d="M2.556 12.453h2.569v11.862H2.556z"/><path fill="#CCA02F" d="M2.273 24.387l.275-.189h2.585l.275.189.356.897v.839H1.918v-.839z"/><path fill="#CCC" d="M1.477 26.198h4.728v1.508H1.477z"/><path fill="#2B59AB" d="M1.484 26.828s.372.007.557-.013c.263-.027.516-.145.78-.146.375 0 .732.2 1.106.202.433.003.848-.23 1.28-.217.206.007.4.105.603.141.13.023.395.047.395.047v.384s-.268-.039-.4-.069c-.2-.045-.386-.162-.59-.17-.433-.017-.84.263-1.273.26-.385-.002-.743-.238-1.128-.245-.262-.005-.513.11-.773.138-.188.02-.564.02-.564.02l.007-.332zm0 .756s.372.006.557-.013c.263-.027.516-.146.78-.146.375-.001.732.2 1.106.202.433.003.848-.23 1.28-.217.206.006.4.105.603.14.13.024.395.048.395.048v.383s-.268-.038-.4-.068c-.2-.046-.386-.162-.59-.17-.433-.017-.84.263-1.273.26-.385-.003-.743-.239-1.128-.246-.262-.005-.513.11-.773.138-.188.02-.564.021-.564.021l.007-.332zm0-1.512s.372.007.557-.012c.263-.028.516-.146.78-.147.375 0 .732.2 1.106.203.433.003.848-.23 1.28-.217.206.006.4.105.603.14.13.024.395.048.395.048v.383s-.268-.038-.4-.068c-.2-.046-.386-.162-.59-.17-.433-.018-.84.262-1.273.26-.385-.003-.743-.239-1.128-.246-.262-.005-.513.11-.773.138-.188.02-.564.02-.564.02l.007-.332z"/><path fill="#DD2A1B" d="M1.648 16.659c.298.17.62.375.908.498V18.7c-.293-.096-.695-.18-.951-.353-.145-.097-.363-.377-.363-.377l-.126-.927s-.281-.396-.33-.627c-.047-.222-.081-.378.044-.68.125-.302.45-.725.983-.98.533-.255 1.36-.472 2.07-.568.623-.084 1.272-.128 1.888 0 .398.082 1.025.4 1.118.484.093.083-.042 1.692-.071 1.804-.03.112.01.055.118.106.107.05.636.44.636.44L7.7 18.7s-.503-.463-.95-.648c-.446-.185-.683-.44-.683-.44-.103-.121-.144-.23-.123-.324.03-.142.031-.152.193-.463.161-.311.143-.965.146-.985-.77-.304-1.723-.195-2.545-.052-.738.128-1.564.346-2.09.872z"/><path fill="#DD2A1B" d="M6.28 20.155c-.06.094-.271.337-.438.473a3.563 3.563 0 01-.8.483c-.365.162-.76.246-1.147.347-.404.106-.824.146-1.222.271-.254.08-.523.15-.739.306a.546.546 0 00-.019.015l.025.172.046.243c.036.114.122.209.15.325.036.142.024.44.024.44l-.15-.186c-.098-.093-.226-.151-.325-.243l-.185-.208c.02-.227.042-.389.064-.485.054-.24.173-.465.217-.707.031-.174.033-.528.033-.528a7.48 7.48 0 01.95-.588c.326-.16 1.758-.6 2.361-.841v-1.443c.306.11.748.215.975.427l.09.166c.1.978.131 1.499.09 1.561z"/><path fill="#CCC" d="M23.877 12.467h2.569v11.862h-2.569z"/><path fill="#CCA02F" d="M23.612 24.401l.275-.189h2.584l.276.189.355.898v.838h-3.846v-.838z"/><path fill="#CCC" d="M22.815 26.212h4.728v1.508h-4.728z"/><path fill="#2B59AB" d="M22.823 26.842s.372.007.557-.013c.263-.027.516-.145.78-.146.375 0 .732.2 1.107.202.432.003.847-.23 1.28-.217.206.007.4.105.602.141.13.023.395.047.395.047v.384s-.268-.039-.4-.069c-.2-.045-.386-.162-.59-.17-.433-.017-.84.263-1.273.26-.385-.002-.743-.238-1.128-.245-.262-.005-.513.11-.773.138-.187.02-.564.02-.564.02l.007-.332zm0 .756s.372.006.557-.013c.263-.027.516-.146.78-.146.375-.001.732.2 1.107.202.432.003.847-.23 1.28-.217.206.006.4.105.602.14.13.024.395.048.395.048v.383s-.268-.038-.4-.068c-.2-.046-.386-.162-.59-.17-.433-.017-.84.263-1.273.26-.385-.003-.743-.239-1.128-.246-.262-.005-.513.11-.773.138-.187.02-.564.021-.564.021l.007-.332zm0-1.512s.372.007.557-.012c.263-.028.516-.146.78-.147.375 0 .732.2 1.107.203.432.003.847-.23 1.28-.217.206.006.4.105.602.14.13.024.395.048.395.048v.383s-.268-.038-.4-.068c-.2-.046-.386-.162-.59-.17-.433-.018-.84.262-1.273.26-.385-.003-.743-.239-1.128-.246-.262-.005-.513.11-.773.138-.187.02-.564.02-.564.02l.007-.332z"/><path fill="#DD2A1B" d="M27.372 16.668c-.298.17-.637.372-.925.495v1.545c.293-.096.712-.18.968-.353.145-.097.363-.377.363-.377l.126-.927s.281-.396.33-.627c.047-.222.081-.378-.044-.68-.125-.302-.45-.725-.983-.98-.533-.255-1.36-.472-2.07-.568-.623-.084-1.272-.128-1.888 0-.398.082-1.025.4-1.118.484-.093.083.042 1.692.071 1.804.03.112-.01.055-.118.106-.107.05-.636.44-.636.44l-.128 1.678s.503-.463.95-.648c.446-.185.683-.44.683-.44.103-.121.144-.23.123-.324-.03-.142-.031-.153-.193-.463-.161-.311-.143-.965-.145-.985.77-.304 1.722-.195 2.544-.052.738.128 1.564.346 2.09.872z"/><path fill="#DD2A1B" d="M22.739 20.164c.06.094.272.337.439.473.241.196.515.356.8.483.365.162.76.246 1.147.347.403.106.824.146 1.222.271.254.08.523.15.738.306l.02.015a7.373 7.373 0 01-.025.172l-.046.243c-.037.114-.122.209-.15.325-.036.142-.024.44-.024.44l.15-.186c.098-.093.225-.151.325-.243l.185-.208a4.162 4.162 0 00-.064-.485c-.055-.24-.173-.465-.217-.707-.032-.174-.033-.528-.033-.528a7.48 7.48 0 00-.95-.588c-.326-.16-1.758-.6-2.361-.841V18.01c-.307.11-.748.215-.975.427l-.09.166c-.101.978-.131 1.499-.091 1.561z"/><path fill="#CCC" d="M7.408 11.068h14.285V22.5c0 5.912-6.294 5.781-7.196 5.781-.871 0-7.089.061-7.089-5.628V11.068z"/><path fill="#DD2A1B" d="M7.408 11.069h7.127v7.974H7.408z"/><path fill="#CCA02F" d="M10.513 11.806c.06 0 .11.049.11.11v.022a.086.086 0 10.172 0v-.023a.11.11 0 01.109-.109h.068c.06 0 .11.049.11.11v.02a.089.089 0 00.177 0v-.02c0-.061.048-.11.109-.11h.122c.065 0 .117.052.117.117v.225a.11.11 0 01-.109.109h-.066v2.208h.44v-.95h-.046a.1.1 0 01-.1-.101v-.195c0-.052.042-.094.094-.094h.08c.053 0 .095.042.095.094v.023a.071.071 0 00.142 0v-.023c0-.052.042-.094.094-.094h.047c.052 0 .095.042.095.094v.021a.073.073 0 00.146 0v-.021c0-.052.042-.094.094-.094h.091a.1.1 0 01.101.1v.195a.094.094 0 01-.094.094h-.023v.951h.34v3.608h-1.544l-.005-1.254c-.004-.372-.24-.672-.53-.672-.292 0-.537.305-.537.68v1.246H8.87v-3.607h.34v-.949h-.031a.1.1 0 01-.1-.1v-.195c0-.052.042-.094.094-.094h.08c.053 0 .095.042.095.094v.023a.071.071 0 00.142 0v-.023c0-.052.042-.094.094-.094h.047c.052 0 .094.042.094.094v.02a.073.073 0 00.146 0v-.02c0-.052.042-.094.094-.094h.092a.1.1 0 01.1.1v.195a.094.094 0 01-.093.094h-.038v.948h.44v-2.208h-.054a.116.116 0 01-.116-.116v-.226a.11.11 0 01.11-.109h.108zm-.865 3.854c-.15 0-.271.132-.271.296l-.004.568h.55l-.003-.572c-.002-.162-.124-.292-.272-.292zm2.606 0c-.15 0-.272.132-.272.296l-.003.568h.55l-.004-.572c-.002-.162-.123-.292-.271-.292z"/><path d="M14.56 11.069h-.035v8.009h7.204v-8.044h-7.204v.035h.035v.034h7.1v7.906h-7.066v-7.94h-.034v.034z"/><path fill="#9B1DAD" d="M18.987 18.211h-.001v-.004c-.036.092-.192.094-.21-.058-.005.075-.127.11-.13-.06 0-.082.047-.205.11-.206.04-.001.072.028.092.066 0 0 .034-.07.08-.07.052-.001.074.044.108.043.05-.001.11-.068.148-.068a.744.744 0 00-.031-.587c-.087-.173-.426-.195-.595-.457a.81.81 0 01-.095-.272h-.05a.524.524 0 00-.319-.005c-.053.022-.127.075-.144.14-.018.072.062.168.077.24-.025.099-.157.17-.281.216.038.143.014.261.094.412-.133-.039-.184-.158-.236-.283.013.075-.015.133-.004.207-.058-.03-.097-.093-.098-.179a.844.844 0 00-.059.105.122.122 0 01-.06-.118c-.101-.03-.253.086-.285.236-.022.103-.08.163-.096.263-.03-.034-.068-.066-.077-.107a.294.294 0 01-.16.019.167.167 0 01-.085-.074l-.251-.171c-.053.032-.138-.029-.126-.103-.042.018-.086-.022-.064-.112.016-.063.128-.164.163-.154a.105.105 0 01.062.042c.023-.013.084-.033.122-.022.045.014.051.06.08.067.036.011.166-.044.23-.026.286-.219.51-.307.542-.431.048-.189-.084-.305-.006-.617.104-.414.414-.572.808-.458l.067.02a.345.345 0 00-.095-.108c-.339-.006-.657-.232-.864-.45a.204.204 0 01-.075-.086 1.488 1.488 0 01-.036-.046l-.03.027c-.014.014-.047.03-.06.05-.01.014-.012.04-.014.061a.432.432 0 00-.005.054l-.005.057c-.022.004-.067-.101-.07-.16 0-.019 0-.033.002-.044.001-.01.002-.022-.003-.026-.004-.007-.005-.006-.011-.007-.013-.002-.024.05-.063.075a.193.193 0 01-.046.02c.027-.018.044-.096.015-.117-.015-.011-.033-.002-.088.008-.017.004-.03-.005-.03.026a.279.279 0 01-.018.105c-.017.04-.044.038-.064.06l.006-.034-.06.006-.048-.008.004.032a.152.152 0 01-.06-.04c-.004-.01-.02-.029-.029-.054a.07.07 0 01-.003-.01.077.077 0 01-.048.02c-.019.002-.038.002-.057.002-.004.095-.016.117-.068.177-.02.024-.047.032-.078.036a.124.124 0 01-.042 0c-.007-.002-.032-.018-.032-.018l.012-.023-.06-.036-.05-.053-.014-.082-.012.021a.065.065 0 00-.033-.023.152.152 0 01-.048-.027c-.025-.025-.04-.043-.033-.09l.014-.003.007-.113-.002-.057-.008.002c-.018.006-.02-.004-.019-.012a.092.092 0 01.024-.06v-.003l.005-.003a.113.113 0 01.057-.04c-.042-.059.001-.17.073-.19l.007.026.05-.007.094.006a.065.065 0 00-.024-.005l-.003-.046c.09.014.077.094.123.118.098.05.213-.04.285-.087.063-.04.244-.179.294-.194l.005.002a.487.487 0 01.05-.09c.022-.03-.002-.06-.018-.09a.172.172 0 01-.022-.086.443.443 0 01-.08-.02c-.024-.006-.075.036-.106.097-.029.01-.019-.07-.017-.086a.2.2 0 01.038-.081l-.056-.011c-.016-.004-.046-.02-.066-.02-.014 0-.032.014-.046.023l-.036.027-.038.028c-.016-.015.024-.109.058-.145a.178.178 0 01.028-.023c.007-.005.014-.01.015-.017.001-.007 0-.007-.003-.012-.006-.011-.045.009-.083-.007a.188.188 0 01-.04-.025c.028.011.086-.02.082-.054-.003-.019-.018-.027-.057-.064-.012-.011-.015-.026-.034-.01-.131.02-.106-.092-.198-.172a.056.056 0 01.004-.007c-.034-.011-.009.034-.03.005-.061.05-.126-.022-.194-.029-.027-.002-.047-.018-.068-.04a.142.142 0 01-.024-.033.266.266 0 01-.008-.035l.021-.004-.012-.067.003-.068.042-.058-.02.003a.073.073 0 00-.005-.04.175.175 0 01-.012-.052c.001-.033.003-.056.037-.077l.01.01.074-.058.033-.034-.006-.005c-.014-.011-.009-.017-.003-.022a.063.063 0 01.05-.015l.003-.002.004.003a.098.098 0 01.059.021c.011-.065.105-.095.16-.05l-.013.02.034.036.03.032.035-.018c.025.046.017.081.009.112l.019-.013c.008-.006.028.002.04-.002.01-.003.028.023.034.026.01.006.022.015.035.021.013.006.03.013.04.02a.065.065 0 01.031.03c.008.014.006.028.006.045 0 .016-.005.033-.008.05-.005.02-.014.028-.026.043l.042.018c.062.026.253.09.292.12l.003.011.058.013.064.018.003-.03c.002-.022.006-.086.04-.101a.47.47 0 00.099-.084.236.236 0 01.098-.083c.038-.018.076-.06.116-.08a.543.543 0 00.115-.079l.012.014a.086.086 0 01.042-.033c.05-.032.119-.04.173-.07l.026-.013v.01a.597.597 0 00.007-.017c-.012-.002-.017 0-.03.001-.023.004-.019-.007-.04-.01-.061-.058-.15.064-.205.056-.02-.004-.034-.023-.055-.033a.057.057 0 01-.025-.027c-.007-.014-.012-.023-.015-.037-.004-.012-.012-.02-.012-.034 0-.01 0-.025.002-.037l.008-.036c.002-.01.008-.023.008-.034 0-.01-.002-.018.004-.021a.15.15 0 00-.008.003c-.481.136-.44-.334-.185-.399-.098.229-.086.34.147.32.097.004.19-.066.344.163a.041.041 0 00.031-.016c.009-.01.008-.02.008-.036 0-.01-.001-.02-.008-.031-.009-.013-.015-.023-.023-.032l-.021-.022a.11.11 0 00-.042-.028c-.011-.005-.035-.02-.049-.017-.015.003-.036-.004-.053-.004h-.02a.241.241 0 01-.06-.001c-.016-.004-.036-.005-.05-.014-.01-.005-.037-.017-.043-.026-.006-.008-.016-.015-.021-.024-.007-.01-.011-.019-.018-.028a.071.071 0 01-.01-.024c-.003-.01-.008-.018-.008-.029 0-.01.003-.019.002-.03 0-.014.008-.02.008-.034l-.002-.028v-.042c0-.011.004-.022.004-.034 0-.013.008-.023.01-.034.005-.02.012-.017.025-.025.01-.007.023-.008.038-.011.014-.003.025-.012.038-.015a.119.119 0 00.037-.02.113.113 0 01.037-.028c.013-.003.023-.009.038-.012l.034-.007c.01-.002.03-.004.031-.012.004-.015.012-.02.012-.033 0-.015.01-.016.02-.027a.072.072 0 01.028-.02c.002-.002.005-.002.007-.003a.088.088 0 01.041-.008c.014.003.205-.03.21-.03a.418.418 0 01.093.008l-.001-.005c.033-.007.085-.064.115-.09a.18.18 0 01.174-.03c.02.006.012.049.018.074.007.03.103.026.126.042.023.015.067.019.102.057l.025.025a.14.14 0 01.045.015c.012.008.03.014.039.019l.034.015c.011.005.02.014.028.019.013.007.017.016.03.026a.06.06 0 01.016.03c.003.013.016.02.021.03.006.015.01.034-.004.038a.035.035 0 00-.01.004l-.005.005a.023.023 0 00-.003.02l.002.012.023.043c.007.017.03.016.042.03.003.004-.043.035-.048.038-.018.01-.035-.029-.026.011a.076.076 0 010 .03c.004.007 0 .012-.008.017l-.014.021-.003-.001c.003.012.015.027.02.035l.023.044a.17.17 0 01.014.035c.004.015.018.038.024.05.007.015.01.022.017.032l.03.056c.009.014.012.032.021.047.014.024.014.066.019.09.005.023 0 .032-.019.041-.025.013-.026.01-.019.034a.362.362 0 00.017.044c.006.012.011.03.011.047.001.03.021.064.028.089.008.025.02.045.025.07.004.022.02.041.021.063 0 .017.008.026.001.045-.006.014-.045.016-.059.016-.025 0-.037-.02-.058.001a.28.28 0 01-.046.036c.002.004.002.01.003.015 0 .01-.006.024-.012.036l.001.004.004.012c.006.022.002.03-.008.047l.01.014c.01.023.02.034.032.057.013.025.024.05.038.07.018.023.031.037.046.065.013.026.022.054.034.083.01.025.026.049-.003.05-.038 0-.049-.016-.065-.015-.025 0 .005.052.006.079 0 .027 0 .055-.007.07-.004.01-.055.01-.063.019-.016.017-.006.085-.006.112a.32.32 0 01-.021.11.281.281 0 01-.064.05c-.023.007-.034.03-.05.04-.007.003.005.086.005.095.001.034-.006.059-.006.088 0 .018-.08-.03-.085-.031a.223.223 0 01-.036-.025c-.025-.011-.007.056-.006.084a.167.167 0 01-.015.067v.008c0 .018-.041.058-.047.064-.015.017-.029.025-.039.047-.008.018-.025.039-.036.059.257.353.596.712.618.997.004.045.02.09.04.135.132.065.402.078.48-.052a1.12 1.12 0 00.139-.621c-.007-.204-.197-.482-.084-.897.26-.686.601-.73.626-1.235-.063-.262-.253-.297-.428-.128.036.244.018.214-.1.457-.122.25-.259.32-.274.453-.015.135.005.17.058.2.042.024.054.075-.004.082-.058.007-.095-.008-.134-.06h-.001c-.134.012-.134-.251-.122-.336l.001-.006c-.035-.306.04-.457.125-.58.084-.124.259-.24.29-.26.065-.323.414-.258.505-.251.161.05.25.161.272.435-.062.653-.522.873-.619 1.26a1.12 1.12 0 00.006.537v-.004.004l.022.097a.168.168 0 00.197.096c-.038.06-.09.145-.178.03l.004.052c.033.077.084.144.203.14-.052.03-.07.134-.204.007l-.002.014.037.05c.027.125.078.193.134.182-.04.057-.082.103-.19-.091a2.619 2.619 0 01-.103.388c-.097.26-.34.316-.565.283l.001.026s-.004.126-.002.18c.007.193.064.255.035.545.017.068.234.226.32.33.037.044.007.14.005.211.084-.011.139.087.196.222.044.011.078.002.146 0-.027.045-.09.098-.157.1-.099.002-.143-.102-.208-.142.053.05.138.119.115.235a.241.241 0 00-.163-.094c.057.022.116.05.104.121a.245.245 0 00-.121-.05c.05.13.088.324.054.36-.03.03-.1.025-.13-.019a.45.45 0 00.022.15c-.03.04-.092.075-.177.086-.035.004-.068-.004-.109-.012-.077.086-.247.113-.274-.056z"/><path fill="#CCA02F" d="M17.794 11.271l-.023.001-.032.007.044.527 1.138.259.27-.473-.008-.009-.026-.021-.163.031-.001.002-.006-.004-.164.032.038.157.061.018.016-.012-.011.028-.039.055-.05.037-.092-.032-.037-.064-.11.015-.099-.03-.04-.113h.068l.114-.114-.073-.1.017-.06-.127-.11-.114.116v.001l-.006-.001-.114.116.125.11v.052l-.047.039-.084.009-.088-.037-.044-.054-.05.039-.093.013-.057-.055-.01-.058.062.009.105-.122-.133-.104-.008.003v-.001z"/><path fill="#DD2A1B" d="M14.553 19.064v4.524c.37 3.49 3.529 3.494 3.529 3.494s1.336.054 2.406-.959c.693-.84 1.16-2.002 1.16-3.615v-3.444h-7.095z"/><path fill="#CCA02F" d="M21.259 19.419v3.655c0 .756-.256 1.58-.76 2.47l-.045.057c-.722.694-1.496 1.047-2.315 1.047-.855 0-1.455-.276-2.094-.825-.08-.068-.068-.058-.283-.253-.39-.352-.626-1.171-.753-2.511l.01-3.56h3.114l3.126-.08zm-2.893 4.254v2.464c.513-.05 1.01-.275 1.497-.678l-1.497-1.786zm-.5-.089l-1.563 1.8.068.06c.482.415.917.64 1.494.692l.001-2.552zm2.883-.28H18.71l1.48 1.762c.332-.637.518-1.225.56-1.762zm-5.213.001c.096.83.242 1.405.422 1.714l1.489-1.715-1.911.001zm5.222-.501v-2.546l-2.213 2.546h2.213zm-5.241-2.526l-.01 2.526h2.13l-2.12-2.526zm2.349-.28h-1.93l1.93 2.301V20zm2.504-.056l-2.004.05v2.255l2.004-2.305z"/><path fill="#008C24" d="M18.788 23.059c0 .37-.29.67-.65.67a.66.66 0 01-.648-.67c0-.37.29-.67.649-.67a.66.66 0 01.649.66v.01z"/><path fill="#E22531" d="M8.196 19.045v6.525c.078.126.16.245.247.36.176.186.36.343.547.472v-7.357h-.794z"/><path fill="#CCA02F" d="M7.44 19.045h.756v6.525c-.464-.75-.755-1.711-.755-2.942v-3.583zm1.55 0h.795v7.765a3.53 3.53 0 01-.796-.408v-7.357zm1.588 0h.794v7.957c-.227.033-.371.033-.371.033s-.164.005-.423-.03v-7.96zm1.587 0h.795v7.357a3.719 3.719 0 01-.795.4v-7.757zm1.589 0h.785v4.506c-.1.933-.399 1.616-.785 2.116v-6.622z"/><path fill="#DD2A1B" d="M9.785 19.045v7.765c.303.111.58.167.793.196v-7.961h-.793zm1.587 0v7.957c.208-.03.486-.09.793-.2v-7.757h-.793zm1.588 0v7.357c.28-.185.554-.424.794-.734v-6.623h-.793z"/><ellipse cx="14.548" cy="19.058" fill="#DD2A1B" rx="2.385" ry="2.953"/><ellipse cx="14.548" cy="19.058" fill="#2B59AB" rx="1.708" ry="2.114"/><path fill="#CCA02F" d="M15.359 18.647c.037-.136.099-.224.201-.272.101-.024.175-.02.222.015.07.05.122.107.092.215s-.162.19-.272.197l-.038-.159-.138.163.11.076-.071.052.053.09-.032.057-.113-.053a.669.669 0 01-.047-.094l-.006.082c.05.043.075.091.075.145-.015.112-.057.193-.127.24-.08-.036-.123-.117-.127-.24-.006-.049.02-.097.076-.145l-.006-.082a.668.668 0 01-.048.094l-.113.053-.031-.057.07-.08-.09-.062.111-.076-.137-.163-.04.16c-.109-.008-.24-.09-.27-.198-.03-.108.004-.152.091-.215.058-.043.132-.047.222-.015.102.048.165.136.201.272l.024.15c-.004-.127.014-.19-.036-.276-.153-.268-.285-.631.091-.804h.024c.377.173.244.536.091.804-.051.09-.03.161-.036.276.01-.06.019-.11.024-.15zm-1.462 0c.036-.136.098-.224.2-.272.102-.024.176-.02.223.015.07.05.121.107.091.215s-.161.19-.271.197l-.039-.159-.137.163.11.076-.072.052.053.09-.031.057-.113-.053a.669.669 0 01-.048-.094l-.006.082c.05.043.075.091.075.145-.014.112-.056.193-.126.24-.081-.036-.123-.117-.127-.24-.006-.049.019-.097.075-.145l-.006-.082a.668.668 0 01-.047.094l-.113.053-.032-.057.07-.08-.089-.062.11-.076-.137-.163-.038.16c-.11-.008-.242-.09-.272-.198-.03-.108.005-.152.092-.215.058-.043.132-.047.222-.015.102.048.164.136.2.272l.024.15c-.004-.127.014-.19-.035-.276-.154-.268-.286-.631.09-.804h.025c.376.173.244.536.09.804-.05.09-.029.161-.035.276l.024-.15zm.736 1.47c.037-.135.099-.223.201-.27.101-.025.176-.02.222.013.07.052.122.108.092.215-.03.108-.162.19-.272.198l-.038-.159-.138.162.11.076-.071.053.053.09-.032.057-.113-.053a.669.669 0 01-.047-.094l-.006.081c.05.044.075.092.075.145-.015.113-.057.193-.127.241-.08-.037-.123-.117-.127-.24-.006-.049.02-.097.076-.146l-.006-.081a.668.668 0 01-.048.094l-.113.053-.031-.057.07-.081-.09-.062.111-.076-.137-.162-.039.159c-.11-.008-.242-.09-.272-.198-.03-.107.005-.151.092-.215.058-.042.132-.047.222-.014.102.048.165.136.201.272l.024.15c-.004-.127.014-.19-.036-.276-.153-.268-.285-.631.091-.804h.024c.377.173.244.536.091.804-.051.09-.03.161-.035.276.01-.06.018-.11.023-.15z"/><path fill="#008C24" d="M15.715 27.17c-.343.087-.701-.052-.917.316l-.123.123-.007-.336-.248-.017s-.018.177-.033.363l-.084-.084c-.216-.368-.574-.23-.917-.316-.11-.028-.264-.18-.465-.454.013.2.002.428.108.602.091.149.253.253.414.317.117.046.585.107.692.1l.245-.064c-.012.179-.016.341.007.341l.299-.017-.009-.376.288.066c.107.008.574-.053.69-.1.162-.063.326-.167.416-.315.107-.175.096-.402.109-.603-.201.275-.356.426-.465.454z"/><path d="M13.078 27.135l.168.161.211.153.197.058-.109-.109.146.117.16.043.146-.014-.102-.132.168.145.095.023.16.102.052.066-.146-.073-.168-.058-.168.022-.124.036.117-.058-.176-.029-.131-.052-.204-.014.109-.015-.146-.095-.102-.073-.117-.124zm2.976-.009l-.212.192-.236.108-.168.045.08-.127-.19.144-.126.021-.139-.008.107-.127-.173.138-.096.02-.164.096-.053.064.148-.068.17-.052.167.028.123.041-.115-.063.176-.023.133-.046.205-.007-.109-.019.163-.054.11-.067.16-.157z"/><path fill="#FCB95E" d="M14.393 25.72c-.076-.095-.15-.19-.285-.285-.045.13.01.259.149.388-.148-.098-.754.494-.425 1.073.126.222.55.464.55.464l.305.006c.197-.167.537-.24.592-.505.081-.392.127-.799-.566-1.06.075-.063.125-.175.171-.298-.11.034-.193.124-.274.217.086-.177-.039-.32-.126-.468-.054.127-.15.2-.091.468z"/><path fill="#A76408" d="M14.484 25.995c.36.192.461.481.32.858-.019.074-.113.187-.25.32a1.347 1.347 0 01-.264-.31c-.101-.279-.182-.56.194-.868z"/><path fill="#DD2A1B" d="M27.116 10.198c-.05.135.173-.337.16-.517-.01-.144-1.015-.353-2.015-.348-1 .006-1.799.22-1.945.37-.261.269.051.427.051.427l.13.27.44.255.033.49h2.48l.155-.495a.463.463 0 01.094-.09c.09-.052.168-.066.203-.097.066-.058.137-.147.214-.265z"/><path fill="#CCA02F" d="M26.462 11.126h.474v.62l-.49.732h-2.569l-.505-.732v-.62h.595l-.055-.301c-.152-.148-.28-.27-.382-.368-.154-.145-.191-.23-.332-.293.037-.038.225-.088.354-.103.13-.016.176.027.251.114.05.059.06.129.028.21l-.05.052c.137.033.23.04.28.02.128-.05.197-.209.208-.293-.086.14-.155.197-.208.172-.08-.038-.13-.107-.149-.209a.32.32 0 01.058-.266l.21-.26.233.12c.096.067.166.127.211.183.067.083.07.157.05.223-.013.045-.061.078-.144.1-.09-.006-.151-.062-.216-.1.165.17.341.305.476 0 .068.073.102.098.225.098.123 0 .088-.061.191-.164-.034.007-.18.11-.258-.012-.045-.164-.032-.28.04-.347l.115-.113a.778.778 0 01-.088-.146l.004-.248a.612.612 0 01.235-.274.6.6 0 01.225.27.412.412 0 01.01.292c-.016.038-.058.074-.083.106.192.064.267.186.224.366-.043.18-.158.222-.346.127a.295.295 0 00.122.143.196.196 0 00.282-.072c.142.22.338.179.44.074-.036-.006-.164.05-.227-.134-.062-.183.079-.3.187-.39l.24-.101.177.219c.05.157.096.221.048.32-.048.098-.114.133-.321.098.04.1.12.21.334.095.002.189.142.193.343.117-.123.014-.202-.008-.24-.066-.055-.087.011-.164.056-.221.02-.025.135-.053.347-.082l.13.011.106.071c-.094.047-.212.147-.354.3a.517.517 0 01-.247.119l-.128.242-.117.301zm-.155 0c-.682-.185-1.612-.203-2.277 0h2.277z"/><path fill="#2B59AB" d="M25.481 8.834a.227.227 0 110-.003v.003z"/><path fill="#CCA02F" d="M25.319 8.617l.009.148.147.009.006.057-.01.073h-.435l-.01-.07.007-.06.146-.009.009-.148.016-.135-.104.053v-.174l.107.063.005-.003-.054-.123h.191l-.049.126.107-.063v.174l-.114-.048zm-.429.62c-.104.02-.212.005-.318.011a9.24 9.24 0 00-.17.011l-.014.025.026.195-.022.204-.156.121-.18-.043-.1-.166-.015-.194.058-.11a1.928 1.928 0 00-.213.024l-.252.066-.168.179.014.222.058.16-.003.148-.055.08c-.01-.001-.109.014-.148-.047-.057-.09-.06-.276-.08-.358l-.028-.243.108-.18.243-.12c.104-.035.215-.043.323-.06.11-.016.222-.026.333-.038l.073-.073.207-.105a.691.691 0 01.272-.037c.137.014.388.138.388.138a.79.79 0 00.041.016c.042-.049.244-.045.283 0 .013-.004.295-.14.431-.154.091-.01.185.01.272.037l.281.178c.11.012.222.022.332.039.109.016.22.024.324.058l.242.122.108.18-.027.242c-.035.138-.02.38-.161.395l-.067.01-.055-.08-.004-.148.059-.16.013-.222-.167-.18-.253-.065a2.015 2.015 0 00-.213-.024l.059.11-.016.194-.1.166-.18.043-.156-.121-.021-.204.03-.218a9.47 9.47 0 00-.189-.013c-.106-.006-.213.009-.318-.01l-.138-.048c.03.146.033.249.009.309a.365.365 0 01-.235.226.502.502 0 01-.238-.266l.004-.247c.003-.008-.027.006-.131.025z"/><path fill="#DD2A1B" d="M21.783 7.479c-.193.516.658-1.288.61-1.976-.04-.547-3.858-1.348-7.655-1.325-3.797.022-6.83.84-7.386 1.413-.993 1.025.193 1.63.193 1.63l.493 1.032 1.67.969.128 1.872h9.42l.585-1.89c.155-.179.274-.292.357-.341.343-.2.638-.255.77-.372.252-.223.523-.56.815-1.012z"/><path fill="#CCA02F" d="M17.918 2.708l1.067.675c.42.046.843.085 1.262.148.412.06.834.09 1.229.222l.921.46.41.683-.103.921c-.109.429-.09 1.122-.374 1.392l.184.124c-.358.176-.807.556-1.345 1.139-.343.267-.656.417-.939.45l-.484.918-.446 1.145h-.59c-2.588-.704-6.122-.77-8.645 0h-.242L9.617 9.84l-.397-.87c-.38.028-.724-.121-.842-.498-.134-.052-.94-.904-1.474-1.14a.571.571 0 01.172-.102.333.333 0 01-.043-.054c-.216-.34-.228-1.048-.307-1.359l-.102-.921.41-.683.92-.46c.396-.132.818-.161 1.23-.222.418-.063.84-.102 1.262-.148l.28-.278.786-.397c.332-.103.688-.177 1.033-.141.518.053 1.472.522 1.472.522.04.018.079.033.115.047.164-.205.368-.382.58-.525.222.162.416.335.57.53.186-.085 1.127-.525 1.603-.574.346-.036.701.038 1.033.141zm-7.971 1.31c-.27.02-.541.041-.808.089l-.96.252-.637.678.051.845.223.61-.013.523c.155-.033.31-.06.447-.076.49-.06.666.102.952.435.191.222.227.488.108.797l-.193.198c1.68.874 1.814-.717 1.853-1.036-.324.53-.587.747-.788.651-.303-.143-.491-.408-.565-.792-.073-.385 0-.721.22-1.01l.316-.394-.367-.615-.061-.738.222-.417zm9.536 0l.223.417-.061.738-.372.62.19.235c.187.598.247 1.003.182 1.215-.066.212-.015.216-.454.433-.44.218-.677-.395-.81-.433.213.928.5 1.172 1.315.735.007.716.538.734 1.301.442-.465.053-.768-.03-.909-.249-.211-.329.04-.624.21-.84.113-.144.333-.234.66-.27l.658-.042h.01l-.012-.528.223-.61.051-.844-.638-.678-.958-.252a7.65 7.65 0 00-.809-.089zm-6.153-.204c-.396.073-.805.019-1.206.04-.217.013-.433.027-.649.043l-.052.094.099.739-.082.775-.081.063.158.082c.365.252.633.483.803.693.255.315.22.755.19.849-.032.094-.203.399-.547.378-.345-.021-.574-.236-.82-.38 1.02 1.282 1.294 1.158 1.806 0 1.191 1.472 1.48-.394 1.602-.48-.047-.047-.615.772-.974.254-.36-.519-.149-1.133.127-1.386l.41-.404a1.897 1.897 0 01-.303-.518v-.048a.615.615 0 01-.006-.015l.016-.882c-.035-.004-.199.03-.491.103zm2.246-.18l.012.06.025.075c.071.239.098.502.055.746a.959.959 0 01-.06.292c-.058.144-.133.28-.228.402.089.07.201.194.335.369.271.355.699.594.111 1.317-.587.722-1.061-.212-1.088-.185.19 1.762.83 1.124 1.552.61.691.812 1.06 1.125 1.9-.077-.139-.023-.546.354-.84.147-.296-.206-.295-.324-.212-.712.083-.389.33-.755.742-1.1l.132-.056-.022-.017-.081-.775.118-.828c-.24-.018-.48-.034-.72-.047-.402-.022-.811.032-1.207-.041l-.524-.18z"/><path fill="#2B59AB" d="M15.573 2.283a.863.863 0 110-.012v.012z"/><path fill="#CCA02F" d="M14.959 1.458l.035.56.555.035.024.218-.038.277h-1.652l-.037-.264.025-.231.556-.035.035-.56.1-.499-.436.189V.485l.426.23-.205-.469h.725l-.203.469.424-.23v.663L14.86.962z"/><path fill="#FFF" d="M11.017 9.456l-.28.28-.279-.28.28-.279.279.276v.003zm2.475-.398l-.28.28-.28-.28.28-.28.28.276v.004zm2.956-.02l-.28.28-.279-.28.28-.28.28.276v.004zm2.425.423l-.279.28-.28-.28.28-.279.28.275v.004z"/><path fill="#DD2A1B" d="M14.022 9.026l.715-.444.717.458-.741.461-.691-.475zm-4.396.392l.724.199-.446.585-.511-.303.233-.48zm10.146 0l.233.481-.51.303-.447-.585.724-.199z"/><path fill="#008C24" d="M12.456 9.16l-.466.433-.587-.245.466-.432.586.24.001.004zm5.424.152l-.575.272-.486-.41.575-.272.486.406v.004z"/><path fill="#FFF" d="M14.551 3.256l-.254-.254.239-.238-.148-.148.323-.323.324.319v.004l-.147.147.237.234v.005l-.252.253.28.276v.006l-.442.442-.441-.442.281-.281zm4.225.61l.206-.206.45.444v.006l-.45.451-.45-.45.244-.244-.448-.448.45-.45.451.444v.006l-.45.45-.003-.002zM17.08 2.772l-.108.109.318.313v.005l-.369.37-.369-.37.165-.164-.287-.286.337-.337.316.311.368-.368.393.388v.006l-.393.393-.37-.37zm-6.426 1.096l.244.243-.45.451-.451-.45v-.007l.45-.444.207.207-.454-.448v-.006l.45-.444.451.45-.447.448zm1.692-1.145l.315-.311.337.337-.286.286.164.164-.369.37-.369-.37v-.005l.319-.313-.109-.109-.37.37-.394-.393v-.006l.394-.388.368.368zM22.793 6.71l-.47.47-.469-.47.47-.47.469.464v.006zm.455-1.127l-.47.47-.469-.47.47-.47.47.464v.006zm-.125-1.15l-.47.47-.469-.47.47-.469.47.463v.006zm-.92-.722l-.432.432-.432-.432.432-.433.433.427v.006zm-.954-.274l-.411.411-.411-.41.411-.412.411.406v.005zm-1.002-.136l-.41.41-.412-.41.411-.411.411.405v.006zM6.637 6.71v-.007l.47-.463.47.47-.47.469-.47-.47zm-.455-1.128v-.006l.47-.463.469.47-.47.469-.469-.47zm.125-1.15v-.006l.47-.463.47.47-.47.469-.47-.47zm.92-.722v-.006l.432-.427.432.433-.432.432-.432-.432zm.954-.274v-.005l.411-.406.411.411-.41.411-.412-.41zM9.183 3.3v-.006l.411-.405.411.41-.41.412-.412-.411zm4.34-.215v-.004l.29-.286.29.29-.29.29-.29-.29zm-.569-.167v-.005l.337-.332.337.337-.337.336-.337-.336zm-2.107-.048v-.006l.394-.388.394.394-.394.393-.394-.393zm-.726 2.215V5.08l.47-.463.47.469-.47.47-.47-.47zm5.786-2l-.29.29-.29-.29.29-.29.29.286v.004zm.57-.167l-.337.336-.337-.336.337-.337.336.332v.005zm2.106-.048l-.394.393-.393-.393.393-.394.394.388v.006zm.726 2.215l-.47.47-.469-.47.47-.47.47.464v.006zm-4.128-.642l-.47.47-.47-.47.47-.47.47.464v.006z"/><circle cx="21.456" cy="8.306" r="1" fill="#2B59AB"/><circle cx="18.381" cy="7.034" r="1" fill="#2B59AB"/><circle cx="14.688" cy="6.539" r="1" fill="#2B59AB"/><circle cx="8.163" cy="8.306" r="1" fill="#2B59AB"/><circle cx="11.154" cy="7.32" r="1" fill="#2B59AB"/></g></g></svg>